<svg width="126" height="117" viewBox="0 0 126 117" fill="none" xmlns="http://www.w3.org/2000/svg">
<rect x="0.409091" y="0.409091" width="125.182" height="116.182" rx="58.0909" fill="#F5F5F5"/>
<rect x="0.409091" y="0.409091" width="125.182" height="116.182" rx="58.0909" stroke="#CBCBCB" stroke-width="0.818182"/>
<g filter="url(#filter0_d_784_5697)">
<path d="M60.3052 33.7971H101.73C103.427 33.7971 104.784 35.1746 104.784 36.8516V63.7027C104.784 65.3996 103.407 66.7571 101.73 66.7571H60.3052C58.6083 66.7571 57.2507 65.3796 57.2507 63.7027V36.8516C57.2507 35.1546 58.6083 33.7971 60.3052 33.7971Z" fill="white"/>
<path d="M101.73 66.8967H60.305C58.5482 66.8967 57.1108 65.4593 57.1108 63.7025V36.8514C57.1108 35.0946 58.5482 33.6572 60.305 33.6572H101.73C103.486 33.6572 104.924 35.0946 104.924 36.8514V63.7025C104.924 65.4593 103.506 66.8967 101.73 66.8967ZM60.305 33.9367C58.688 33.9367 57.3903 35.2344 57.3903 36.8514V63.7025C57.3903 65.3196 58.688 66.6172 60.305 66.6172H101.73C103.347 66.6172 104.644 65.3196 104.644 63.7025V36.8514C104.644 35.2344 103.347 33.9367 101.73 33.9367H60.305Z" fill="#231F20"/>
<path d="M95.3616 40.2654H66.6738V62.2653H95.3616V40.2654Z" fill="white"/>
<path d="M95.3611 62.4448H66.6734C66.5935 62.4448 66.5137 62.3849 66.5137 62.2851V40.2652C66.5137 40.1853 66.5736 40.1055 66.6734 40.1055H95.3611C95.441 40.1055 95.5208 40.1654 95.5208 40.2652V62.2651C95.5208 62.3649 95.441 62.4248 95.3611 62.4448ZM66.8331 62.1254H95.2014V40.4249H66.8331V62.1254Z" fill="#D1D3D4"/>
<path d="M89.1128 72.4865L86.1981 66.717H74.699L78.1727 73.5845H73.8605C73.4613 73.5845 73.1418 73.9039 73.1418 74.3032C73.1418 74.7025 73.4613 75.0219 73.8605 75.0219L87.5556 75.0419C88.5138 75.0419 89.3124 74.2633 89.3124 73.305C89.3124 73.0056 89.2325 72.7461 89.1128 72.4865Z" fill="white"/>
<path d="M87.555 75.1817L73.8599 75.1618C73.3808 75.1618 73.0015 74.7824 73.0015 74.3033C73.0015 73.8242 73.3808 73.4449 73.8599 73.4449H77.9325L74.5786 66.777C74.5586 66.7371 74.5586 66.6772 74.5786 66.6373C74.5986 66.5974 74.6584 66.5774 74.6984 66.5774H86.1974C86.2573 66.5774 86.2972 66.6173 86.3172 66.6572L89.2319 72.4467C89.6911 73.385 89.3118 74.5229 88.3735 74.9821C88.1339 75.1019 87.8544 75.1817 87.555 75.1817ZM73.8599 73.7244C73.5405 73.7244 73.281 73.9839 73.281 74.3033C73.281 74.6227 73.5405 74.8823 73.8599 74.8823L87.555 74.9022C88.4334 74.9022 89.152 74.1835 89.152 73.2852C89.152 73.0256 89.0922 72.7861 88.9724 72.5665L86.0976 66.8569H74.918L78.2918 73.5247C78.3318 73.6046 78.2918 73.6844 78.212 73.7044C78.192 73.7044 78.172 73.7244 78.1521 73.7244H73.8599Z" fill="#231F20"/>
<path d="M87.6756 73.7243H73.8807C73.8009 73.7243 73.741 73.6445 73.7609 73.5646C73.7609 73.5047 73.8208 73.4448 73.8807 73.4448H87.6756C87.7555 73.4448 87.8353 73.4848 87.8353 73.5646C87.8353 73.6445 87.7954 73.7243 87.7155 73.7243C87.6956 73.7243 87.6756 73.7243 87.6756 73.7243Z" fill="#231F20"/>
<path d="M103.766 38.4884H58.2086C58.1287 38.4884 58.0688 38.4085 58.0688 38.3087C58.0688 38.2288 58.1287 38.1689 58.2086 38.1689H103.766C103.845 38.1689 103.905 38.2488 103.905 38.3486C103.905 38.4285 103.845 38.4884 103.766 38.4884Z" fill="#D1D3D4"/>
<path d="M77.154 65.08C77.5509 65.08 77.8727 64.7582 77.8727 64.3613C77.8727 63.9643 77.5509 63.6426 77.154 63.6426C76.7571 63.6426 76.4353 63.9643 76.4353 64.3613C76.4353 64.7582 76.7571 65.08 77.154 65.08Z" fill="#193035"/>
<path d="M81.0073 65.08C81.4042 65.08 81.726 64.7582 81.726 64.3613C81.726 63.9643 81.4042 63.6426 81.0073 63.6426C80.6103 63.6426 80.2886 63.9643 80.2886 64.3613C80.2886 64.7582 80.6103 65.08 81.0073 65.08Z" fill="#D1D3D4"/>
<path d="M84.8801 65.08C85.277 65.08 85.5988 64.7582 85.5988 64.3613C85.5988 63.9643 85.277 63.6426 84.8801 63.6426C84.4831 63.6426 84.1614 63.9643 84.1614 64.3613C84.1614 64.7582 84.4831 65.08 84.8801 65.08Z" fill="#D1D3D4"/>
<path d="M81.6857 36.3324H78.5713C78.4915 36.3324 78.4116 36.2525 78.4116 36.1726C78.4116 36.0928 78.4715 36.0129 78.5713 36.0129H81.6857C81.7655 36.0129 81.8454 36.0928 81.8454 36.1726C81.8454 36.2725 81.7655 36.3324 81.6857 36.3324Z" fill="#D1D3D4"/>
<path d="M71.824 72.8657H51.2615V75.0617H71.824V72.8657Z" fill="white"/>
<path d="M71.8244 75.2016H51.2618C51.182 75.2016 51.1221 75.1417 51.1221 75.0618V72.8658C51.1221 72.786 51.182 72.7261 51.2618 72.7261H71.8244C71.9042 72.7261 71.9641 72.786 71.9641 72.8658V75.0618C71.9641 75.1417 71.9042 75.2016 71.8244 75.2016ZM51.4016 74.9221H71.6846V73.0255H51.4016V74.9221Z" fill="#231F20"/>
<path d="M98.5747 73.6646C99.2473 73.6646 99.7925 73.1193 99.7925 72.4468C99.7925 71.7742 99.2473 71.229 98.5747 71.229C97.9022 71.229 97.3569 71.7742 97.3569 72.4468C97.3569 73.1193 97.9022 73.6646 98.5747 73.6646Z" fill="white"/>
<path d="M98.5743 73.8243C97.8157 73.8243 97.1968 73.2054 97.1968 72.4468C97.1968 71.6882 97.8157 71.0693 98.5743 71.0693C99.3329 71.0693 99.9518 71.6882 99.9518 72.4468C99.9518 73.2054 99.3329 73.8243 98.5743 73.8243ZM98.5743 71.3688C97.9754 71.3688 97.4962 71.8479 97.4962 72.4468C97.4962 73.0457 97.9754 73.5249 98.5743 73.5249C99.1732 73.5249 99.6523 73.0457 99.6523 72.4468C99.6523 71.8679 99.1732 71.3888 98.5743 71.3688Z" fill="#D1D3D4"/>
<path d="M92.0269 75.3215C92.0269 75.3215 91.1885 74.0638 91.8672 72.8061C92.546 71.5484 94.203 71.1092 96.0197 71.3088C97.8364 71.5085 100.651 72.6464 101.07 73.7244C101.35 74.4231 100.192 75.2217 100.192 75.2217L92.0269 75.3215Z" fill="white"/>
<path d="M92.027 75.4813C91.9671 75.4813 91.9272 75.4613 91.9072 75.4014C91.8673 75.3415 91.0288 74.0439 91.7475 72.7263C92.4263 71.5085 94.0234 70.9096 96.0597 71.1492C97.8165 71.3488 100.771 72.4668 101.25 73.6646C101.57 74.4631 100.372 75.3016 100.332 75.3415C100.312 75.3615 100.272 75.3615 100.252 75.3615L92.027 75.4813ZM95.2012 71.4287C93.684 71.4287 92.5261 71.9477 92.007 72.886C91.468 73.8842 91.9472 74.9023 92.1069 75.1619L100.172 75.082C100.472 74.8624 101.13 74.2635 100.951 73.8043C100.571 72.8261 97.8764 71.6882 96.0197 71.4686C95.7402 71.4287 95.4608 71.4287 95.2012 71.4287Z" fill="#D1D3D4"/>
<path d="M94.4224 71.2891C94.4224 71.2891 97.7363 71.6883 96.5984 73.6248L94.4224 71.2891Z" fill="white"/>
<path d="M96.5981 73.7645C96.5183 73.7645 96.4384 73.7046 96.4384 73.6048C96.4384 73.5849 96.4384 73.5449 96.4584 73.525C96.698 73.1257 96.7379 72.7863 96.5782 72.4869C96.1589 71.6484 94.4021 71.4288 94.3822 71.4288C94.3023 71.4288 94.2424 71.3489 94.2424 71.2491C94.2624 71.1693 94.3223 71.1094 94.4221 71.1094C94.502 71.1094 96.3785 71.3489 96.8577 72.3272C97.0573 72.7264 97.0174 73.1656 96.7179 73.6647C96.7179 73.7446 96.658 73.7645 96.5981 73.7645Z" fill="#D1D3D4"/>
<path d="M106.241 82.3487C106.161 82.3487 106.081 82.2888 106.081 82.189V78.4757H23.8709V82.189C23.8709 82.2688 23.811 82.3487 23.7112 82.3487C23.6314 82.3487 23.5515 82.2888 23.5515 82.189V78.336C23.5515 78.2561 23.6114 78.1763 23.7112 78.1763H106.241C106.321 78.1763 106.401 78.2362 106.401 78.336V82.2089C106.401 82.2888 106.321 82.3686 106.241 82.3487Z" fill="#D1D3D4"/>
<path d="M109.974 82.3485C109.894 82.3485 109.814 82.2886 109.814 82.1888V75.4611H20.4771V82.1888C20.4771 82.2687 20.4172 82.3485 20.3374 82.3685C20.2575 82.3685 20.1777 82.3086 20.1577 82.2287C20.1577 82.2088 20.1577 82.2088 20.1577 82.1888V75.3213C20.1577 75.2415 20.2176 75.1616 20.3174 75.1616H109.974C110.054 75.1616 110.134 75.2215 110.134 75.3213V82.2088C110.134 82.2886 110.054 82.3485 109.974 82.3485Z" fill="#D1D3D4"/>
<path d="M60.8643 72.1474C60.8643 72.1474 62.8807 73.8643 64.3979 73.0658C65.9151 72.2672 66.3543 71.3888 66.3543 71.3888C66.3543 71.3888 66.8734 73.6447 67.4523 73.0258C68.0313 72.407 67.4124 71.828 67.4124 71.828C67.4124 71.828 68.4705 73.505 68.5703 72.5866C68.6701 71.6683 67.9514 70.71 67.9514 70.71C67.9514 70.71 71.0658 73.0059 70.926 71.6284C70.7863 70.2509 68.0512 68.4741 65.995 68.4741C63.9387 68.4741 60.1057 69.5721 60.1057 69.5721" fill="white"/>
<path d="M63.4789 73.445C62.1413 73.445 60.8238 72.347 60.7439 72.2671C60.684 72.2072 60.664 72.1074 60.7239 72.0475C60.7838 71.9876 60.8836 71.9677 60.9435 72.0276C60.9635 72.0475 62.9 73.6646 64.3174 72.9259C65.7747 72.1473 66.2139 71.3288 66.2139 71.3089C66.2339 71.249 66.3137 71.209 66.3736 71.229C66.4335 71.229 66.4934 71.2889 66.5134 71.3488C66.6931 72.0675 67.0125 72.906 67.2321 72.9658C67.252 72.9658 67.272 72.9858 67.3319 72.906C67.5116 72.7462 67.5715 72.4867 67.4916 72.2472C67.4117 72.1274 67.3319 72.0076 67.252 71.9078C67.2121 71.8279 67.2121 71.7481 67.292 71.6882C67.3519 71.6483 67.4317 71.6482 67.4916 71.7081C67.6114 71.808 67.6912 71.9477 67.7511 72.0875C67.9907 72.4268 68.2502 72.6864 68.35 72.7063C68.35 72.7063 68.37 72.6664 68.37 72.5865C68.4499 71.7481 67.7911 70.8297 67.7711 70.8297C67.7112 70.7698 67.7312 70.67 67.7911 70.6101C67.851 70.5702 67.9308 70.5702 67.9907 70.6101C68.8891 71.2689 70.3065 72.1074 70.6459 71.9078C70.7057 71.8878 70.7257 71.788 70.7058 71.6682C70.566 70.3506 67.8909 68.6537 65.9344 68.6537C63.9181 68.6537 60.125 69.7317 60.0851 69.7517C60.0052 69.7717 59.9054 69.7317 59.8855 69.6519C59.8655 69.572 59.9054 69.4922 59.9853 69.4522C59.9853 69.4522 59.9853 69.4522 60.0052 69.4522C60.165 69.4123 63.8782 68.3542 65.9344 68.3542C68.0706 68.3542 70.8655 70.1709 71.0252 71.6482C71.0651 71.9876 70.9254 72.1274 70.8056 72.2072C70.3264 72.4867 69.1486 71.788 68.39 71.2889C68.6096 71.7081 68.7094 72.1673 68.6695 72.6464C68.6495 72.886 68.5497 73.0058 68.4099 73.0457C68.2303 73.0856 68.0107 72.9259 67.7911 72.6864C67.7511 72.866 67.6513 73.0257 67.5315 73.1655C67.4317 73.2853 67.272 73.3452 67.1123 73.3052C66.713 73.2054 66.3936 72.347 66.2539 71.808C65.7548 72.4069 65.1359 72.906 64.4372 73.2453C64.1776 73.3452 63.8383 73.425 63.4789 73.445Z" fill="#231F20"/>
<path d="M52.0003 85.9822C52.0003 85.9822 48.2272 79.2345 48.6464 71.6284C49.0657 64.0222 52.3796 61.0077 49.9441 53.5214C47.5085 46.035 43.0766 46.1747 36.9278 49.888C29.0022 54.6792 23.2128 73.8443 26.946 86.6211C26.9659 86.641 38.445 89.8951 52.0003 85.9822Z" fill="#193035"/>
<path d="M41.2794 55.4977C41.2794 55.877 37.3466 74.4632 39.9418 76.18C42.5371 77.8969 61.4826 73.984 61.4826 73.984L61.283 68.8135L50.0834 67.5557C50.0834 67.5557 53.2376 53.4814 47.6877 49.7482C42.1378 46.015 41.2794 55.4977 41.2794 55.4977Z" fill="#193035"/>
<path d="M42.9763 77.2183C40.9201 77.2183 38.8838 76.7591 38.0852 75.182C36.2486 71.6285 41.2195 52.8028 41.4191 51.9842C41.4391 51.9044 41.519 51.8445 41.6188 51.8645C41.6986 51.8844 41.7585 51.9643 41.7386 52.0441C41.7386 52.0441 41.7386 52.0441 41.7386 52.0641C41.6986 52.2637 36.6079 71.5885 38.3847 75.0223C40.1215 78.4161 48.3665 76.1203 48.4463 76.1003C48.5262 76.0804 48.626 76.1203 48.646 76.2001C48.6659 76.28 48.626 76.3798 48.5462 76.3998C48.3066 76.4796 45.6115 77.2183 42.9763 77.2183Z" fill="#231F20"/>
<path d="M50.0832 67.7157C49.624 67.6957 47.2683 67.576 47.0687 66.7375C46.869 65.9389 49.624 57.8936 49.9435 56.9753C49.9634 56.8954 50.0632 56.8555 50.1431 56.8754C50.2229 56.8954 50.2629 56.9952 50.2429 57.0751C49.0651 60.5088 47.2484 66.1386 47.3681 66.6576C47.4879 67.0968 49.0251 67.3564 50.1032 67.3963C50.183 67.3963 50.2429 67.4761 50.2429 67.576C50.2429 67.6358 50.183 67.6957 50.0832 67.7157Z" fill="#231F20"/>
<path d="M47.8674 49.2091L48.646 47.5522C48.646 47.5522 49.9436 48.4904 51.3011 46.3943C52.6587 44.2981 52.9581 36.2727 52.9581 36.2727L49.2848 36.5522L49.0652 39.3471C49.0652 39.3471 48.5661 37.0513 47.1287 38.5486C45.6914 40.0458 47.9872 43.0803 47.9872 43.0803L46.1106 47.1728" fill="white"/>
<path d="M47.8679 49.369C47.8479 49.369 47.828 49.369 47.808 49.349C47.7281 49.3091 47.7082 49.2293 47.7281 49.1494L48.5267 47.4924C48.5467 47.4525 48.5866 47.4126 48.6265 47.4126C48.6664 47.3926 48.7263 47.4126 48.7463 47.4325C49.0058 47.5922 49.3252 47.6521 49.6447 47.5922C50.1837 47.4924 50.7027 47.0732 51.1819 46.3345C52.3996 44.4779 52.759 37.6504 52.7989 36.4725L49.445 36.732L49.2454 39.4071C49.2454 39.487 49.1855 39.5469 49.1056 39.5469C49.0258 39.5469 48.9659 39.507 48.9459 39.4271C48.886 39.1476 48.6265 38.389 48.1873 38.2692C47.9278 38.1894 47.6283 38.3491 47.269 38.7084C45.9514 40.1059 48.1274 43.0006 48.1474 43.0206C48.1873 43.0605 48.1873 43.1204 48.1673 43.1803L46.2908 47.2728C46.2508 47.3527 46.171 47.3926 46.0911 47.3527C46.0113 47.3128 45.9713 47.2329 46.0113 47.153L47.828 43.1403C47.4686 42.6413 45.632 39.9462 47.0294 38.4888C47.4686 38.0297 47.8879 37.85 48.2472 37.9498C48.5666 38.0696 48.8461 38.3291 48.9659 38.6485L49.1256 36.5723C49.1256 36.4925 49.1855 36.4326 49.2653 36.4326L52.9387 36.1531C52.9786 36.1531 53.0185 36.173 53.0584 36.193C53.0984 36.2329 53.0984 36.2729 53.0984 36.3128C53.0784 36.6322 52.7989 44.418 51.4214 46.5142C50.8824 47.3327 50.3035 47.7919 49.6646 47.9117C49.3452 47.9716 49.0058 47.9316 48.7064 47.7919L47.9877 49.2892C47.9877 49.3291 47.9278 49.369 47.8679 49.369Z" fill="#231F20"/>
<path d="M52.2196 40.3452C52.2196 40.3452 53.5771 43.4595 53.1779 43.779C52.7786 44.0984 51.7405 43.8588 51.7405 43.8588" fill="white"/>
<path d="M52.4789 44.0984C52.2194 44.0984 51.9598 44.0585 51.7003 44.0186C51.6205 43.9986 51.5606 43.9187 51.5805 43.8389C51.6005 43.759 51.6803 43.6991 51.7602 43.7191C52.1395 43.799 52.8183 43.8788 53.0578 43.6792C53.2175 43.4596 52.6586 41.8226 52.0597 40.4251C52.0197 40.3452 52.0597 40.2654 52.1395 40.2255C52.2194 40.2055 52.2992 40.2255 52.3391 40.3053C52.8582 41.5031 53.6767 43.5794 53.2575 43.9187C53.0379 44.0585 52.7584 44.1184 52.4789 44.0984Z" fill="#231F20"/>
<path d="M51.1413 39.8265C51.2957 39.8265 51.4208 39.4779 51.4208 39.0479C51.4208 38.6179 51.2957 38.2693 51.1413 38.2693C50.987 38.2693 50.8618 38.6179 50.8618 39.0479C50.8618 39.4779 50.987 39.8265 51.1413 39.8265Z" fill="#231F20"/>
<path d="M23.7114 67.4359H23.6715C21.6352 66.9567 19.7985 65.3996 18.7604 63.2635C15.4864 56.5557 20.078 49.768 25.7078 46.2944C26.4065 45.8552 27.1451 45.4359 27.8638 45.0167C30.7785 43.3198 33.793 41.583 35.6696 38.808C36.2685 37.8897 36.7876 36.9115 37.2467 35.9133C37.626 35.0948 38.0453 34.2763 38.5244 33.4977C40.0416 31.0022 42.3375 29.6247 44.8529 29.7246C49.2249 29.8843 52.3792 32.4596 53.2176 34.8951C53.2376 34.975 53.1977 35.0748 53.1178 35.0948C53.038 35.1147 52.9382 35.0748 52.9182 34.995C51.8801 31.9206 47.9872 30.1438 44.8529 30.024C42.4572 29.9442 40.2612 31.2618 38.8039 33.6374C38.3447 34.396 37.9455 35.2345 37.5462 36.0331C37.087 37.0512 36.548 38.0294 35.9491 38.9677C34.0326 41.8026 30.9782 43.5594 28.0435 45.2762C27.3248 45.6955 26.6061 46.1147 25.8874 46.5539C20.3575 49.9477 15.8657 56.5756 19.0599 63.1237C20.058 65.18 21.8148 66.6772 23.7713 67.1364C23.8511 67.1564 23.911 67.2562 23.8711 67.336C23.8511 67.376 23.7912 67.4359 23.7114 67.4359Z" fill="#231F20"/>
<path d="M50.9621 46.3944C50.8623 46.3944 50.7625 46.3745 50.6627 46.3146C50.1636 46.055 50.463 44.8572 50.5429 44.6177C50.5629 44.5378 50.6427 44.4779 50.7425 44.5178C50.7625 44.5178 50.7625 44.5178 50.7825 44.5378L51.9004 45.1167C51.9803 45.1567 52.0002 45.2565 51.9603 45.3363C51.9204 45.4162 51.8206 45.4362 51.7407 45.3962L50.7825 44.8971C50.6627 45.4162 50.6427 45.9552 50.8024 46.055C50.8823 46.095 50.9621 46.1149 51.042 46.075C51.2217 45.9752 51.3814 45.8354 51.4612 45.6558C51.5012 45.5759 51.601 45.5559 51.6609 45.5959C51.7407 45.6358 51.7607 45.7157 51.7407 45.7955C51.6209 46.055 51.4013 46.2547 51.1418 46.3745C51.0819 46.3745 51.022 46.3944 50.9621 46.3944Z" fill="#231F20"/>
<path d="M80.6485 49.4487C80.6485 49.4487 76.6558 49.269 75.6177 50.8861C74.5796 52.5031 71.2656 62.0657 71.2656 62.0657L85.1004 62.3851C85.1004 62.3851 85.9389 56.2962 85.4598 53.7808C84.9208 50.8461 85.3999 48.9097 80.6485 49.4487Z" fill="#231F20"/>
<path d="M78.8711 45.7553C78.8312 45.5756 78.7513 45.4359 78.6316 45.2961C78.5118 45.1564 78.3321 45.1165 78.1524 45.1764C78.0327 45.2363 77.9528 45.356 77.9528 45.4958C77.9328 45.6355 77.9528 45.7753 78.0127 45.8951C78.0925 46.1346 78.2123 46.3542 78.372 46.5339C78.5517 46.7136 78.7913 46.8134 79.0308 46.8134" fill="white"/>
<path d="M78.9912 46.9133C78.7317 46.9133 78.4722 46.7935 78.2726 46.5939C78.0929 46.3942 77.9531 46.1746 77.8733 45.9151C77.8134 45.7754 77.7934 45.6157 77.8134 45.4759C77.8334 45.2962 77.9332 45.1365 78.0929 45.0567C78.3125 44.9768 78.552 45.0367 78.7118 45.2164C78.8315 45.3561 78.9314 45.5358 78.9713 45.7155C78.9912 45.7754 78.9513 45.8552 78.8914 45.8752C78.8315 45.8951 78.7517 45.8552 78.7317 45.7953C78.6918 45.6356 78.6119 45.4959 78.5121 45.3761C78.4323 45.2763 78.2925 45.2363 78.1727 45.2763C78.0929 45.3162 78.033 45.416 78.033 45.4959C78.033 45.6157 78.033 45.7155 78.0729 45.8353C78.1328 46.0549 78.2526 46.2545 78.4123 46.4142C78.572 46.5739 78.7716 46.6538 78.9912 46.6538C79.0511 46.6538 79.111 46.6937 79.111 46.7735C79.111 46.8334 79.0711 46.8933 78.9912 46.8933V46.9133Z" fill="#231F20"/>
<path d="M79.7499 48.1311L79.4904 50.2073C79.4904 50.2073 79.5703 51.3852 80.8679 51.1856C81.6465 51.0458 82.3252 50.5867 82.7245 49.8879L83.004 46.2745C83.024 46.1148 82.465 45.476 82.6447 44.1584C81.7463 44.0386 80.9278 43.5595 80.4087 42.8208C80.4087 42.8208 79.7899 43.5595 79.5303 43.7791C79.3307 43.9388 79.1311 44.1384 78.9714 44.358C78.5521 44.9569 78.5521 45.9551 78.632 46.6339C78.7118 47.2128 79.0113 48.1311 79.7499 48.1311Z" fill="white"/>
<path d="M80.5882 51.3452C80.3087 51.3452 80.0293 51.2653 79.8097 51.1056C79.5501 50.886 79.3904 50.5666 79.3505 50.2272L79.5901 48.2708C78.8714 48.151 78.5719 47.2127 78.4921 46.6537C78.4322 46.1746 78.3523 44.9968 78.8514 44.2781C79.0111 44.0585 79.2107 43.8588 79.4303 43.6792C79.6699 43.4596 80.2888 42.7409 80.2888 42.7409C80.3087 42.7009 80.3686 42.681 80.4086 42.7009C80.4485 42.7009 80.4884 42.7209 80.5283 42.7608C81.0274 43.4596 81.806 43.9187 82.6645 44.0185C82.7044 44.0185 82.7443 44.0385 82.7643 44.0784C82.7842 44.1184 82.8042 44.1383 82.7842 44.1783C82.6844 44.7971 82.7842 45.4559 83.0637 46.0149C83.1236 46.0948 83.1436 46.1946 83.1436 46.2944C83.1436 46.2944 83.1436 46.4142 82.8641 49.9078C82.8641 49.9278 82.8641 49.9477 82.8441 49.9677C82.4249 50.7064 81.7062 51.2055 80.8877 51.3452C80.7879 51.3452 80.6881 51.3452 80.5882 51.3452ZM79.63 50.2272C79.6699 50.4868 79.7897 50.7064 79.9893 50.886C80.2489 51.0657 80.5683 51.1256 80.8677 51.0457C81.5864 50.926 82.2253 50.4868 82.6046 49.8479C82.6245 49.5085 82.8641 46.2944 82.8841 46.2545L82.8242 46.1147C82.5447 45.5358 82.4449 44.8969 82.5047 44.2581C81.6862 44.1184 80.9276 43.6792 80.4086 43.0403C80.169 43.3398 79.9095 43.6193 79.63 43.8788C79.4303 44.0385 79.2507 44.2182 79.1109 44.4178C78.6717 45.0567 78.7516 46.1547 78.7915 46.5939C78.8514 47.1129 79.1309 47.9713 79.7498 47.9713C79.7897 47.9713 79.8296 47.9913 79.8496 48.0113C79.8695 48.0312 79.8895 48.0712 79.8895 48.1311L79.63 50.2272Z" fill="#231F20"/>
<path d="M79.6499 48.7498C79.9893 48.8496 80.3486 48.8496 80.688 48.7298C81.4466 48.4902 81.4866 47.9712 81.4866 47.9712C81.4866 47.9712 80.8477 48.3505 79.7497 48.1309L79.6499 48.7498Z" fill="#231F20"/>
<path d="M80.0893 48.9695C79.9296 48.9695 79.7699 48.9496 79.6301 48.8897C79.6101 48.8897 79.5902 48.8697 79.5702 48.8498C79.5303 48.8098 79.5103 48.7699 79.5303 48.71L79.6301 48.0912C79.6301 48.0512 79.6501 48.0113 79.69 47.9913C79.7299 47.9714 79.7499 47.9714 79.7898 47.9714C80.808 48.191 81.4268 47.8516 81.4268 47.8316C81.4668 47.8117 81.5267 47.8117 81.5666 47.8316C81.6065 47.8516 81.6265 47.9115 81.6265 47.9514C81.6265 47.9714 81.5466 48.5503 80.7281 48.8098C80.5085 48.9296 80.3089 48.9695 80.0893 48.9695ZM79.8098 48.6701C80.0893 48.73 80.3688 48.71 80.6483 48.6102C80.8679 48.5503 81.0675 48.4305 81.2272 48.2509C80.788 48.3706 80.3288 48.3906 79.8697 48.3108L79.8098 48.6701Z" fill="#231F20"/>
<path d="M80.9476 44.6174C80.9476 44.6174 80.169 45.5358 80.3088 45.7354C80.4485 45.935 80.9077 45.8552 80.9077 45.8552" fill="white"/>
<path d="M80.728 46.0148C80.5283 46.0348 80.3287 45.955 80.189 45.8152C80.0492 45.6355 80.2688 45.1963 80.8478 44.5375C80.8877 44.4776 80.9875 44.4776 81.0474 44.5176C81.1073 44.5775 81.1073 44.6573 81.0674 44.7172C80.728 45.1165 80.4285 45.5756 80.4285 45.6755C80.5683 45.7354 80.728 45.7553 80.8877 45.7354C80.9675 45.7154 81.0274 45.7753 81.0474 45.8551C81.0674 45.935 81.0075 45.9949 80.9276 46.0148C80.8677 46.0148 80.7879 46.0148 80.728 46.0148Z" fill="#231F20"/>
<path d="M80.1945 44.8418C80.2132 44.722 80.1753 44.6166 80.1099 44.6064C80.0446 44.5962 79.9765 44.6851 79.9578 44.805C79.9392 44.9248 79.9771 45.0302 80.0424 45.0404C80.1078 45.0506 80.1759 44.9616 80.1945 44.8418Z" fill="#231F20"/>
<path d="M81.9852 44.9993C81.9892 44.8781 81.9389 44.7781 81.8727 44.7759C81.8066 44.7737 81.7498 44.8702 81.7458 44.9914C81.7418 45.1127 81.7921 45.2127 81.8582 45.2149C81.9244 45.2171 81.9812 45.1206 81.9852 44.9993Z" fill="#231F20"/>
<path d="M82.5647 45.4559C82.6046 45.2762 82.7044 45.1165 82.8043 44.9568C82.924 44.7771 83.1436 44.6973 83.3433 44.6973C83.483 44.6973 83.6028 44.7771 83.6627 44.8769C83.7026 44.9568 83.7426 45.0366 83.7426 45.1365C83.8024 45.5956 83.6427 46.1945 83.1836 46.4341C83.0239 46.5339 82.8442 46.5339 82.6845 46.4341" fill="white"/>
<path d="M82.964 46.6339C82.8442 46.6339 82.7444 46.5939 82.6645 46.534C82.6047 46.4941 82.6047 46.4143 82.6446 46.3544C82.6845 46.2945 82.7644 46.2945 82.8243 46.3344C82.944 46.3943 83.0638 46.3943 83.1836 46.3144C83.5629 46.1148 83.7226 45.5558 83.6627 45.1366C83.6627 45.0567 83.6428 44.9968 83.6028 44.9369C83.5429 44.8571 83.4631 44.8172 83.3633 44.8172C83.1836 44.8172 83.0239 44.897 82.9241 45.0368C82.8243 45.1765 82.7444 45.3163 82.7045 45.4959C82.6845 45.5558 82.6047 45.5957 82.5448 45.5758C82.4849 45.5558 82.4449 45.476 82.4649 45.4161C82.5248 45.2164 82.6047 45.0368 82.7244 44.8771C82.8841 44.6774 83.1237 44.5576 83.3832 44.5776C83.5629 44.5976 83.7027 44.6774 83.8025 44.8172C83.8624 44.917 83.8823 45.0168 83.9023 45.1166C83.9622 45.6357 83.7825 46.2745 83.2834 46.534C83.1836 46.5939 83.0838 46.6339 82.964 46.6339Z" fill="#231F20"/>
<path d="M79.7698 46.2744L81.7661 46.3742C81.7661 46.3742 81.4667 47.4323 80.6282 47.3724C79.7897 47.3125 79.7698 46.2744 79.7698 46.2744Z" fill="white"/>
<path d="M80.7079 47.5123C80.6679 47.5123 80.648 47.5123 80.608 47.5123C79.8295 47.4524 79.6298 46.6738 79.6099 46.2945C79.6099 46.2147 79.6698 46.1548 79.7496 46.1548L81.746 46.2546C81.7859 46.2546 81.8258 46.2746 81.8458 46.3145C81.8658 46.3544 81.8857 46.3943 81.8658 46.4343C81.8059 46.7936 81.4066 47.5123 80.7079 47.5123ZM79.9093 46.4143C79.9492 46.6738 80.089 47.1729 80.628 47.2129C81.167 47.2528 81.4465 46.7537 81.5663 46.4942L79.9093 46.4143Z" fill="#231F20"/>
<path d="M74.7786 61.5066H74.7587C74.6788 61.4867 74.6189 61.4068 74.6389 61.327C74.7986 60.4685 76.1561 52.9822 76.216 52.7626C76.236 52.6827 76.3358 52.6228 76.4156 52.6428C76.4955 52.6627 76.5554 52.7626 76.5354 52.8424C76.4755 53.0421 75.3775 59.0711 74.9583 61.3869C74.9184 61.4467 74.8585 61.5066 74.7786 61.5066Z" fill="white"/>
<path d="M84.6206 50.1675C84.6206 50.1675 87.2957 54.26 87.6551 54.3199C88.0344 54.3798 88.813 50.407 88.813 50.407L91.5879 51.3254C91.5879 51.3254 90.3102 61.2872 88.7131 60.888C87.1161 60.4887 83.9219 55.7373 83.9219 55.7373L84.6206 50.1675Z" fill="#231F20"/>
<path d="M88.374 60.8077C88.354 60.8077 88.3341 60.8077 88.3141 60.8077C86.3177 60.0491 84.4811 56.5156 84.4212 56.3758C84.3813 56.296 84.4212 56.1961 84.501 56.1562C84.5809 56.1163 84.6607 56.1562 84.7206 56.2161C84.7406 56.256 86.5573 59.7896 88.4538 60.5083C88.5337 60.5482 88.5736 60.6281 88.5337 60.7279C88.4938 60.7678 88.4339 60.8077 88.374 60.8077Z" fill="white"/>
<path d="M89.153 50.387C89.153 50.387 88.9334 47.3126 89.153 47.2926C89.3726 47.2727 89.692 48.7699 89.692 48.7699C89.692 48.7699 90.3109 46.7536 90.5105 46.7736C90.7102 46.7935 90.79 47.1729 90.6303 48.1311C90.6303 48.1311 91.0096 46.7337 91.2492 46.8734C91.4888 47.0131 91.0695 48.2908 91.0695 48.2908C91.0695 48.2908 91.4688 47.0531 91.6684 47.1729C91.8681 47.2926 91.4089 48.5903 91.4089 48.5903C91.4089 48.5903 91.7683 47.2527 91.9679 47.5122C92.1675 47.7718 91.4688 50.4669 91.2492 51.2255" fill="white"/>
<path d="M91.2685 51.3651C91.2485 51.3651 91.2485 51.3651 91.2286 51.3651C91.1487 51.3451 91.0888 51.2653 91.1088 51.1655C91.4282 50.0275 91.8275 48.3905 91.8474 47.7916C91.8075 47.8715 91.7676 47.9513 91.7476 48.0711C91.7077 48.2308 91.6478 48.4305 91.568 48.6501C91.548 48.7299 91.4482 48.7698 91.3683 48.7499C91.2885 48.7299 91.2485 48.6501 91.2685 48.5702C91.3284 48.3306 91.3883 48.151 91.4482 47.9913C91.5081 47.8316 91.528 47.6718 91.548 47.5521C91.4282 47.8116 91.3284 48.0711 91.2286 48.3506C91.2086 48.4305 91.1088 48.4704 91.0289 48.4504C90.9491 48.4305 90.9092 48.3306 90.9291 48.2508C91.0489 47.8914 91.1288 47.5121 91.1687 47.1328C91.009 47.4722 90.8692 47.8116 90.7894 48.1709C90.7694 48.2508 90.6896 48.2907 90.6097 48.2907C90.5298 48.2708 90.47 48.1909 90.4899 48.111C90.6097 47.3524 90.5698 47.0729 90.5298 46.9931C90.2504 47.592 90.0108 48.2109 89.8311 48.8297C89.7912 48.9096 89.7113 48.9495 89.6315 48.9096C89.5916 48.8896 89.5716 48.8497 89.5516 48.8098C89.4718 48.4305 89.372 48.0512 89.2322 47.6918C89.2122 48.2109 89.2522 49.3488 89.3121 50.3869C89.3121 50.4667 89.2522 50.5466 89.1723 50.5466C89.0925 50.5466 89.0126 50.4867 89.0126 50.4069C88.793 47.1728 88.9926 47.1728 89.1524 47.1528C89.2522 47.1528 89.4518 47.1328 89.7313 48.1909C90.2504 46.6138 90.43 46.6138 90.5498 46.6138C90.6297 46.6138 90.7095 46.6537 90.7694 46.7335C90.8293 46.8334 90.8692 46.9332 90.8892 47.053C90.9491 46.9132 91.0289 46.7934 91.1687 46.7335C91.2286 46.7136 91.3084 46.7136 91.3683 46.7535C91.4681 46.8334 91.528 46.9731 91.5081 47.0929C91.528 47.0729 91.568 47.053 91.5879 47.033C91.6478 47.013 91.7277 47.013 91.7676 47.053C91.8075 47.0729 91.8874 47.1328 91.8874 47.3325C91.9672 47.3125 92.067 47.3524 92.107 47.4323C92.3865 47.8116 91.5081 50.9259 91.4082 51.2653C91.3883 51.3252 91.3284 51.3651 91.2685 51.3651Z" fill="#231F20"/>
<path d="M84.5411 45.0366H84.5011C84.4213 45.0166 84.3814 44.9368 84.4013 44.8569C84.601 44.2979 84.7008 43.719 84.7207 43.1401C84.7008 42.6609 84.5011 42.0221 84.0021 41.7226C83.7625 41.5829 83.483 41.503 83.2035 41.4631C82.385 41.2834 81.6064 41.1437 80.8278 41.2834L80.6282 41.3234C80.4286 41.3833 80.2289 41.4032 80.0093 41.4032C79.9095 41.4032 79.8097 41.3833 79.7298 41.3633C79.65 41.3433 79.5701 41.3433 79.4903 41.3234C78.8115 41.2834 78.2525 41.8624 78.0329 42.4413C77.7934 43.1001 77.8533 43.8587 77.9131 44.5175C77.9331 44.5974 77.8732 44.6773 77.7934 44.6773C77.7135 44.6773 77.6337 44.6373 77.6337 44.5575V44.5375C77.5738 43.8388 77.5139 43.0602 77.7734 42.3415C78.0329 41.6228 78.7117 40.984 79.5102 41.0239C79.5901 41.0239 79.6899 41.0439 79.7698 41.0638C79.8496 41.0838 79.9295 41.0838 80.0293 41.1038C80.209 41.1038 80.4086 41.0838 80.5883 41.0439L80.7879 41.0039C81.6064 40.8642 82.4249 41.0039 83.2634 41.1836C83.5629 41.2435 83.8623 41.3433 84.1418 41.4831C84.6609 41.8025 84.9803 42.4214 85.0002 43.1401C84.9803 43.7589 84.8805 44.3778 84.6609 44.9567C84.6609 44.9967 84.601 45.0366 84.5411 45.0366Z" fill="#231F20"/>
</g>
<circle cx="59.7273" cy="111.682" r="2.04545" fill="#010309"/>
<circle cx="66.273" cy="111.682" r="2.04545" fill="#72FA32"/>
<defs>
<filter id="filter0_d_784_5697" x="-1.80742" y="-2.68659" width="129.615" height="129.615" filterUnits="userSpaceOnUse" color-interpolation-filters="sRGB">
<feFlood flood-opacity="0" result="BackgroundImageFix"/>
<feColorMatrix in="SourceAlpha" type="matrix" values="0 0 0 0 0 0 0 0 0 0 0 0 0 0 0 0 0 0 127 0" result="hardAlpha"/>
<feOffset dy="8.93894"/>
<feGaussianBlur stdDeviation="7.44912"/>
<feComposite in2="hardAlpha" operator="out"/>
<feColorMatrix type="matrix" values="0 0 0 0 0 0 0 0 0 0 0 0 0 0 0 0 0 0 0.25 0"/>
<feBlend mode="normal" in2="BackgroundImageFix" result="effect1_dropShadow_784_5697"/>
<feBlend mode="normal" in="SourceGraphic" in2="effect1_dropShadow_784_5697" result="shape"/>
</filter>
</defs>
</svg>
