<svg width="102" height="38" viewBox="0 0 102 38" fill="none" xmlns="http://www.w3.org/2000/svg">
  <path d="M16.8623 24.7793C16.8623 25.9801 16.5596 27.1204 15.9541 28.2002C15.3486 29.2699 14.4051 30.1377 13.1235 30.8037C11.8521 31.4697 10.2072 31.8027 8.18896 31.8027C7.17985 31.8027 6.29183 31.7573 5.5249 31.6665C4.76807 31.5757 4.06169 31.4294 3.40576 31.2275C2.74984 31.0156 2.06868 30.7432 1.3623 30.4102V25.082C2.56315 25.6875 3.77409 26.1517 4.99512 26.4746C6.21615 26.7874 7.32113 26.9438 8.31006 26.9438C8.90544 26.9438 9.38981 26.8732 9.76318 26.7319C10.1466 26.5907 10.4292 26.3989 10.6108 26.1567C10.7925 25.9045 10.8833 25.6169 10.8833 25.2939C10.8833 24.9105 10.7471 24.5876 10.4746 24.3252C10.2122 24.0527 9.78841 23.7702 9.20312 23.4775C8.61784 23.1849 7.84587 22.8216 6.88721 22.3877C6.06982 22.0042 5.32812 21.6107 4.66211 21.207C4.00618 20.8034 3.44108 20.3442 2.9668 19.8296C2.5026 19.3049 2.14437 18.6943 1.89209 17.998C1.63981 17.3018 1.51367 16.4793 1.51367 15.5308C1.51367 14.1079 1.86182 12.9172 2.55811 11.9585C3.26449 10.9897 4.24333 10.2632 5.49463 9.77881C6.75602 9.29443 8.20915 9.05225 9.854 9.05225C11.297 9.05225 12.5938 9.2137 13.7441 9.53662C14.9046 9.85954 15.944 10.2279 16.8623 10.6416L15.0308 15.2583C14.0822 14.8244 13.1488 14.4813 12.2305 14.229C11.3122 13.9666 10.4595 13.8354 9.67236 13.8354C9.15771 13.8354 8.73389 13.901 8.40088 14.0322C8.07796 14.1533 7.83577 14.3198 7.67432 14.5317C7.52295 14.7437 7.44727 14.9858 7.44727 15.2583C7.44727 15.6014 7.57845 15.9092 7.84082 16.1816C8.11328 16.4541 8.56234 16.7518 9.18799 17.0747C9.82373 17.3875 10.6865 17.7962 11.7764 18.3008C12.8561 18.7852 13.7744 19.3099 14.5312 19.875C15.2881 20.43 15.8633 21.1011 16.2568 21.8882C16.6605 22.6652 16.8623 23.6289 16.8623 24.7793Z" fill="#010309"/>
  <path opacity="0.5" d="M30 10.75C29.8011 10.75 29.6103 10.829 29.4697 10.9697C29.329 11.1103 29.25 11.3011 29.25 11.5V13C29.25 13.1989 29.329 13.3897 29.4697 13.5303C29.6103 13.671 29.8011 13.75 30 13.75C30.1989 13.75 30.3897 13.671 30.5303 13.5303C30.671 13.3897 30.75 13.1989 30.75 13V11.5C30.75 11.3011 30.671 11.1103 30.5303 10.9697C30.3897 10.829 30.1989 10.75 30 10.75ZM21.75 19C21.75 18.8011 21.829 18.6103 21.9697 18.4697C22.1103 18.329 22.3011 18.25 22.5 18.25H24C24.1989 18.25 24.3897 18.329 24.5303 18.4697C24.671 18.6103 24.75 18.8011 24.75 19C24.75 19.1989 24.671 19.3897 24.5303 19.5303C24.3897 19.671 24.1989 19.75 24 19.75H22.5C22.3011 19.75 22.1103 19.671 21.9697 19.5303C21.829 19.3897 21.75 19.1989 21.75 19ZM35.25 19C35.25 18.8011 35.329 18.6103 35.4697 18.4697C35.6103 18.329 35.8011 18.25 36 18.25H37.5C37.6989 18.25 37.8897 18.329 38.0303 18.4697C38.171 18.6103 38.25 18.8011 38.25 19C38.25 19.1989 38.171 19.3897 38.0303 19.5303C37.8897 19.671 37.6989 19.75 37.5 19.75H36C35.8011 19.75 35.6103 19.671 35.4697 19.5303C35.329 19.3897 35.25 19.1989 35.25 19ZM30 24.25C30.1989 24.25 30.3897 24.329 30.5303 24.4697C30.671 24.6103 30.75 24.8011 30.75 25V26.5C30.75 26.6989 30.671 26.8897 30.5303 27.0303C30.3897 27.171 30.1989 27.25 30 27.25C29.8011 27.25 29.6103 27.171 29.4697 27.0303C29.329 26.8897 29.25 26.6989 29.25 26.5V25C29.25 24.8011 29.329 24.6103 29.4697 24.4697C29.6103 24.329 29.8011 24.25 30 24.25Z" fill="black"/>
  <path d="M22.95 13.011L23.47 13.531C23.6115 13.6676 23.801 13.7431 23.9977 13.7413C24.1943 13.7395 24.3824 13.6605 24.5214 13.5214C24.6604 13.3823 24.7391 13.1941 24.7408 12.9975C24.7424 12.8008 24.6667 12.6114 24.53 12.47L24.011 11.95C25.3566 10.8068 27.0013 10.0726 28.7507 9.83418C30.5002 9.59572 32.2814 9.86295 33.8838 10.6043C35.4863 11.3456 36.8431 12.5301 37.794 14.0179C38.7449 15.5056 39.2501 17.2344 39.25 19C39.2546 21.1949 38.4743 23.319 37.05 24.989L36.53 24.469C36.4608 24.3974 36.378 24.3403 36.2865 24.301C36.195 24.2618 36.0965 24.2411 35.997 24.2403C35.8974 24.2395 35.7986 24.2585 35.7065 24.2963C35.6143 24.334 35.5306 24.3898 35.4602 24.4602C35.3898 24.5307 35.3342 24.6144 35.2965 24.7066C35.2588 24.7988 35.2399 24.8976 35.2408 24.9972C35.2417 25.0968 35.2625 25.1952 35.3018 25.2866C35.3412 25.3781 35.3983 25.4609 35.47 25.53L35.989 26.05C34.319 27.4743 32.1949 28.2546 30 28.25C28.2344 28.2501 26.5056 27.7449 25.0179 26.794C23.5301 25.8431 22.3456 24.4863 21.6043 22.8838C20.8629 21.2814 20.5957 19.5002 20.8342 17.7507C21.0726 16.0013 21.8068 14.3566 22.95 13.011ZM22.4 11.399C21.4002 12.3961 20.6073 13.5809 20.0667 14.8853C19.5262 16.1897 19.2486 17.588 19.25 19C19.25 24.937 24.063 29.75 30 29.75C31.4116 29.7517 32.8096 29.4745 34.1139 28.9345C35.4181 28.3944 36.6028 27.6021 37.6 26.603L37.601 26.601M37.601 26.601C38.6004 25.6038 39.394 24.4189 39.9342 23.1145C40.4744 21.8101 40.7517 20.4119 40.75 19C40.75 13.063 35.937 8.25001 30 8.25001C28.5881 8.24847 27.1898 8.52587 25.8854 9.06627C24.581 9.60667 23.3972 10.3994 22.4 11.399" fill="black"/>
  <path d="M25.942 24.117L30.065 22.243C30.874 21.876 31.278 21.692 31.625 21.433C31.931 21.203 32.204 20.931 32.433 20.624C32.692 20.278 32.876 19.874 33.243 19.065L35.117 14.942C35.39 14.342 35.527 14.041 35.471 13.859C35.4469 13.7813 35.4043 13.7107 35.3468 13.6532C35.2893 13.5957 35.2187 13.553 35.141 13.529C34.959 13.473 34.659 13.609 34.058 13.883L29.935 15.757C29.126 16.124 28.722 16.308 28.375 16.567C28.069 16.797 27.796 17.069 27.567 17.376C27.308 17.722 27.124 18.126 26.757 18.935L24.883 23.058C24.61 23.658 24.473 23.959 24.529 24.141C24.553 24.2187 24.5956 24.2894 24.6531 24.3469C24.7106 24.4044 24.7813 24.447 24.859 24.471C25.041 24.527 25.341 24.391 25.942 24.117ZM30 21C29.4695 21 28.9608 20.7893 28.5858 20.4142C28.2107 20.0392 28 19.5305 28 19C28 18.4696 28.2107 17.9609 28.5858 17.5858C28.9608 17.2107 29.4695 17 30 17C30.5304 17 31.0391 17.2107 31.4142 17.5858C31.7893 17.9609 32 18.4696 32 19C32 19.5305 31.7893 20.0392 31.4142 20.4142C31.0391 20.7893 30.5304 21 30 21Z" fill="black"/>
  <path d="M54.5181 18.7852H50.8701V31.5H44.9517V18.7852H42.6812V15.8789L45.0728 14.4258V14.1382C45.0728 12.6548 45.2695 11.4489 45.6631 10.5205C46.0566 9.58203 46.6823 8.89079 47.54 8.44678C48.3978 8.00277 49.5179 7.78076 50.9004 7.78076C51.7884 7.78076 52.5907 7.8514 53.3071 7.99268C54.0337 8.13395 54.7905 8.33577 55.5776 8.59814L54.3062 12.4277C54.0135 12.347 53.6855 12.2764 53.3223 12.2158C52.9691 12.1553 52.5856 12.125 52.1719 12.125C51.7178 12.125 51.3848 12.2663 51.1729 12.5488C50.971 12.8213 50.8701 13.2703 50.8701 13.896V14.3501H54.5181V18.7852ZM65.25 27.1255C65.7848 27.1255 66.2743 27.07 66.7183 26.959C67.1623 26.848 67.6265 26.7067 68.1108 26.5352V30.8491C67.465 31.1317 66.7788 31.3587 66.0522 31.5303C65.3358 31.7119 64.4175 31.8027 63.2974 31.8027C62.1873 31.8027 61.2085 31.6312 60.3608 31.2881C59.5132 30.9349 58.8522 30.3294 58.3779 29.4717C57.9137 28.6038 57.6816 27.3979 57.6816 25.854V18.7852H55.6079V16.3784L58.2417 14.5166L59.7705 10.9141H63.6455V14.3501H67.8535V18.7852H63.6455V25.4604C63.6455 26.0155 63.7868 26.4342 64.0693 26.7168C64.3519 26.9893 64.7454 27.1255 65.25 27.1255Z" fill="#010309"/>
  <g clip-path="url(#clip0_48_182)">
    <path d="M85.2853 35L85.6426 28.1474C85.6478 28.0347 85.6277 27.9223 85.5837 27.8184C85.5397 27.7145 85.4729 27.6218 85.3883 27.5472C85.3038 27.4725 85.2035 27.4178 85.095 27.387C84.9865 27.3562 84.8724 27.3501 84.7612 27.3692L77.9404 28.5682L78.8615 26.0273C78.8989 25.9262 78.9036 25.8159 78.8752 25.712C78.8467 25.608 78.7864 25.5156 78.7027 25.4476L71.2307 19.397L72.9141 18.6109C73.0278 18.5572 73.1179 18.4638 73.1677 18.3483C73.2174 18.2328 73.2232 18.1031 73.1841 17.9836L71.7071 13.4417L76.0109 14.3548C76.1275 14.3791 76.2489 14.3624 76.3545 14.3074C76.4602 14.2524 76.5435 14.1626 76.5905 14.0531L77.4243 12.0918L80.7831 15.6968C80.8599 15.7778 80.9609 15.8317 81.0709 15.8505C81.1809 15.8692 81.2941 15.8518 81.3934 15.8008C81.4927 15.7498 81.5728 15.668 81.6217 15.5676C81.6705 15.4673 81.6855 15.3538 81.6645 15.2442L80.0446 6.89082L82.6411 8.39156C82.7021 8.42729 82.7697 8.45012 82.8399 8.45864C82.91 8.46716 82.9812 8.46118 83.0489 8.44109C83.1167 8.42099 83.1796 8.38719 83.2337 8.34179C83.2879 8.2964 83.3321 8.24037 83.3637 8.17717L85.9999 3L88.6362 8.17717C88.6678 8.24037 88.712 8.2964 88.7662 8.34179C88.8203 8.38719 88.8832 8.42099 88.951 8.44109C89.0187 8.46118 89.0899 8.46716 89.16 8.45864C89.2301 8.45012 89.2978 8.42729 89.3588 8.39156L91.9553 6.89082L90.3354 15.2442C90.3143 15.3538 90.3294 15.4673 90.3782 15.5676C90.4271 15.668 90.5072 15.7498 90.6065 15.8008C90.7058 15.8518 90.8189 15.8692 90.929 15.8505C91.039 15.8317 91.14 15.7778 91.2168 15.6968L94.5756 12.0918L95.4094 14.0531C95.4563 14.1626 95.5397 14.2524 95.6454 14.3074C95.751 14.3624 95.8724 14.3791 95.989 14.3548L100.293 13.4417L98.8158 17.9836C98.7767 18.1031 98.7825 18.2328 98.8322 18.3483C98.8819 18.4638 98.9721 18.5572 99.0858 18.6109L100.769 19.397L93.2972 25.4476C93.2135 25.5156 93.1532 25.608 93.1247 25.712C93.0963 25.8159 93.101 25.9262 93.1384 26.0273L94.0595 28.5682L87.2387 27.3692C87.1275 27.3501 87.0134 27.3562 86.9049 27.387C86.7964 27.4178 86.6961 27.4725 86.6115 27.5472C86.527 27.6218 86.4602 27.7145 86.4162 27.8184C86.3722 27.9223 86.3521 28.0347 86.3573 28.1474L86.7146 35H85.2853Z" fill="#FF0000"/>
  </g>
  <defs>
    <clipPath id="clip0_48_182">
      <rect width="32" height="32" fill="white" transform="translate(70 3)"/>
    </clipPath>
  </defs>
</svg>