<svg width="32" height="32" viewBox="0 0 32 32" fill="none" xmlns="http://www.w3.org/2000/svg">
  <g clip-path="url(#clip0_130_377)">
    <path d="M15.2853 32L15.6426 25.1474C15.6478 25.0347 15.6277 24.9223 15.5837 24.8184C15.5397 24.7145 15.4729 24.6218 15.3883 24.5472C15.3038 24.4725 15.2035 24.4178 15.095 24.387C14.9865 24.3562 14.8724 24.3501 14.7612 24.3692L7.94039 25.5682L8.86148 23.0273C8.89885 22.9262 8.90363 22.8159 8.87515 22.712C8.84667 22.608 8.78636 22.5156 8.70267 22.4476L1.23071 16.397L2.91409 15.6109C3.02778 15.5572 3.11795 15.4638 3.16766 15.3483C3.21737 15.2328 3.2232 15.1031 3.18406 14.9836L1.70714 10.4417L6.01086 11.3548C6.12746 11.3791 6.24888 11.3624 6.35452 11.3074C6.46017 11.2524 6.54355 11.1626 6.59051 11.0531L7.42426 9.09181L10.7831 12.6968C10.8599 12.7778 10.9609 12.8317 11.0709 12.8505C11.1809 12.8692 11.2941 12.8518 11.3934 12.8008C11.4927 12.7498 11.5728 12.668 11.6217 12.5676C11.6705 12.4673 11.6855 12.3538 11.6645 12.2442L10.0446 3.89082L12.6411 5.39156C12.7021 5.42729 12.7697 5.45012 12.8399 5.45864C12.91 5.46716 12.9812 5.46118 13.0489 5.44109C13.1167 5.42099 13.1796 5.38719 13.2337 5.34179C13.2879 5.2964 13.3321 5.24037 13.3637 5.17717L15.9999 0L18.6362 5.17717C18.6678 5.24037 18.712 5.2964 18.7662 5.34179C18.8203 5.38719 18.8832 5.42099 18.951 5.44109C19.0187 5.46118 19.0899 5.46716 19.16 5.45864C19.2301 5.45012 19.2978 5.42729 19.3588 5.39156L21.9553 3.89082L20.3354 12.2442C20.3143 12.3538 20.3294 12.4673 20.3782 12.5676C20.4271 12.668 20.5072 12.7498 20.6065 12.8008C20.7058 12.8518 20.8189 12.8692 20.929 12.8505C21.039 12.8317 21.14 12.7778 21.2168 12.6968L24.5756 9.09181L25.4094 11.0531C25.4563 11.1626 25.5397 11.2524 25.6454 11.3074C25.751 11.3624 25.8724 11.3791 25.989 11.3548L30.2927 10.4417L28.8158 14.9836C28.7767 15.1031 28.7825 15.2328 28.8322 15.3483C28.8819 15.4638 28.9721 15.5572 29.0858 15.6109L30.7692 16.397L23.2972 22.4476C23.2135 22.5156 23.1532 22.608 23.1247 22.712C23.0963 22.8159 23.101 22.9262 23.1384 23.0273L24.0595 25.5682L17.2387 24.3692C17.1275 24.3501 17.0134 24.3562 16.9049 24.387C16.7964 24.4178 16.6961 24.4725 16.6115 24.5472C16.527 24.6218 16.4602 24.7145 16.4162 24.8184C16.3722 24.9223 16.3521 25.0347 16.3573 25.1474L16.7146 32H15.2853Z" fill="#FF0000"/>
  </g>
  <defs>
    <clipPath id="clip0_130_377">
      <rect width="32" height="32" fill="white"/>
    </clipPath>
  </defs>
</svg>