<svg width="46" height="46" viewBox="0 0 46 46" fill="none" xmlns="http://www.w3.org/2000/svg">
<path fill-rule="evenodd" clip-rule="evenodd" d="M28.9267 17.0737C29.1767 17.3237 29.3172 17.6629 29.3172 18.0165C29.3172 18.3701 29.1767 18.7092 28.9267 18.9593L17.1416 30.7444C16.8915 30.9944 16.5524 31.1349 16.1988 31.1349C15.8452 31.1349 15.506 30.9944 15.256 30.7444C15.0059 30.4944 14.8654 30.1552 14.8654 29.8016C14.8654 29.448 15.0059 29.1088 15.256 28.8588L27.0411 17.0737C27.2911 16.8236 27.6303 16.6831 27.9839 16.6831C28.3375 16.6831 28.6766 16.8236 28.9267 17.0737Z" fill="black"/>
<path fill-rule="evenodd" clip-rule="evenodd" d="M30.3407 15.6593C30.5906 15.9094 30.731 16.2485 30.731 16.6021L30.731 25.0874C30.7311 25.4411 30.5907 25.7803 30.3407 26.0305C30.0907 26.2807 29.7516 26.4213 29.3979 26.4214C29.0442 26.4216 28.7049 26.2812 28.4547 26.0312C28.2045 25.7812 28.0639 25.442 28.0638 25.0883L28.0647 17.9352L20.9126 17.9352C20.5589 17.9351 20.2197 17.7945 19.9697 17.5443C19.7197 17.2941 19.5793 16.9548 19.5794 16.6011C19.5796 16.2474 19.7202 15.9083 19.9704 15.6583C20.2206 15.4083 20.5598 15.2679 20.9135 15.268L29.3988 15.268C29.7522 15.2685 30.091 15.4092 30.3407 15.6593Z" fill="black"/>
</svg>
