<svg width="62" height="62" viewBox="0 0 62 62" fill="none" xmlns="http://www.w3.org/2000/svg">
<rect width="62" height="62" rx="31" fill="#FFD7D7"/>
<path fill-rule="evenodd" clip-rule="evenodd" d="M36.9265 25.0737C37.1765 25.3237 37.317 25.6629 37.317 26.0165C37.317 26.3701 37.1765 26.7092 36.9265 26.9593L25.1413 38.7444C24.8913 38.9944 24.5522 39.1349 24.1985 39.1349C23.8449 39.1349 23.5058 38.9944 23.2557 38.7444C23.0057 38.4944 22.8652 38.1552 22.8652 37.8016C22.8652 37.448 23.0057 37.1088 23.2557 36.8588L35.0408 25.0737C35.2909 24.8236 35.63 24.6831 35.9836 24.6831C36.3373 24.6831 36.6764 24.8236 36.9265 25.0737Z" fill="black"/>
<path fill-rule="evenodd" clip-rule="evenodd" d="M38.3407 23.6593C38.5906 23.9094 38.731 24.2485 38.731 24.6021L38.731 33.0874C38.7311 33.4411 38.5907 33.7803 38.3407 34.0305C38.0907 34.2807 37.7516 34.4213 37.3979 34.4214C37.0442 34.4216 36.7049 34.2812 36.4547 34.0312C36.2045 33.7812 36.0639 33.442 36.0638 33.0883L36.0647 25.9352L28.9126 25.9352C28.5589 25.9351 28.2197 25.7945 27.9697 25.5443C27.7197 25.2941 27.5793 24.9548 27.5794 24.6011C27.5796 24.2474 27.7202 23.9083 27.9704 23.6583C28.2206 23.4083 28.5598 23.2679 28.9135 23.268L37.3988 23.268C37.7522 23.2685 38.091 23.4092 38.3407 23.6593Z" fill="black"/>
</svg>
