<svg width="24" height="25" viewBox="0 0 24 25" fill="none" xmlns="http://www.w3.org/2000/svg">
<path d="M21 11.28V8.5C21 6.85 19.65 5.5 18 5.5H14C13.23 5.5 12.53 5.8 12 6.28C11.47 5.8 10.77 5.5 10 5.5H6C4.35 5.5 3 6.85 3 8.5V11.28C2.39 11.83 2 12.62 2 13.5V18.5C2 19.05 2.45 19.5 3 19.5C3.55 19.5 4 19.05 4 18.5V17.5H20V18.5C20 19.05 20.45 19.5 21 19.5C21.55 19.5 22 19.05 22 18.5V13.5C22 12.62 21.61 11.83 21 11.28ZM14 7.5H18C18.55 7.5 19 7.95 19 8.5V10.5H13V8.5C13 7.95 13.45 7.5 14 7.5ZM5 8.5C5 7.95 5.45 7.5 6 7.5H10C10.55 7.5 11 7.95 11 8.5V10.5H5V8.5ZM4 15.5V13.5C4 12.95 4.45 12.5 5 12.5H19C19.55 12.5 20 12.95 20 13.5V15.5H4Z" fill="black"/>
</svg>
