<svg width="17" height="17" viewBox="0 0 17 17" fill="none" xmlns="http://www.w3.org/2000/svg">
<g clip-path="url(#clip0_48_379)">
<path d="M16.5 8.23047C16.5 3.81222 12.9183 0.230469 8.5 0.230469C4.08175 0.230469 0.5 3.81222 0.5 8.23047C0.5 12.2235 3.4255 15.5332 7.25 16.1333V10.543H5.21875V8.23047H7.25V6.46797C7.25 4.46297 8.44438 3.35547 10.2718 3.35547C11.147 3.35547 12.0625 3.51172 12.0625 3.51172V5.48047H11.0538C10.0599 5.48047 9.75 6.09716 9.75 6.72984V8.23047H11.9688L11.6141 10.543H9.75V16.1333C13.5745 15.5332 16.5 12.2235 16.5 8.23047Z" fill="#1877F2"/>
<path d="M11.6141 10.543L11.9688 8.23047H9.75V6.72984C9.75 6.09709 10.0599 5.48047 11.0538 5.48047H12.0625V3.51172C12.0625 3.51172 11.147 3.35547 10.2717 3.35547C8.44438 3.35547 7.25 4.46297 7.25 6.46797V8.23047H5.21875V10.543H7.25V16.1333C7.66351 16.1981 8.08144 16.2306 8.5 16.2305C8.91856 16.2306 9.33649 16.1981 9.75 16.1333V10.543H11.6141Z" fill="white"/>
</g>
<defs>
<clipPath id="clip0_48_379">
<rect width="16" height="16" fill="white" transform="translate(0.5 0.230469)"/>
</clipPath>
</defs>
</svg>
