<svg width="17" height="17" viewBox="0 0 17 17" fill="none" xmlns="http://www.w3.org/2000/svg">
<g clip-path="url(#clip0_48_385)">
<path d="M12.75 0.230469H4.25C2.17893 0.230469 0.5 1.9094 0.5 3.98047V12.4805C0.5 14.5515 2.17893 16.2305 4.25 16.2305H12.75C14.8211 16.2305 16.5 14.5515 16.5 12.4805V3.98047C16.5 1.9094 14.8211 0.230469 12.75 0.230469Z" fill="url(#paint0_radial_48_385)"/>
<path d="M12.75 0.230469H4.25C2.17893 0.230469 0.5 1.9094 0.5 3.98047V12.4805C0.5 14.5515 2.17893 16.2305 4.25 16.2305H12.75C14.8211 16.2305 16.5 14.5515 16.5 12.4805V3.98047C16.5 1.9094 14.8211 0.230469 12.75 0.230469Z" fill="url(#paint1_radial_48_385)"/>
<path d="M8.50056 1.98047C6.80319 1.98047 6.59013 1.98791 5.9235 2.01822C5.25813 2.04872 4.80394 2.15403 4.40656 2.30859C3.99544 2.46822 3.64675 2.68178 3.29938 3.02928C2.95169 3.37672 2.73813 3.72541 2.578 4.13634C2.423 4.53384 2.31756 4.98822 2.28762 5.65328C2.25781 6.31997 2.25 6.53309 2.25 8.23053C2.25 9.92797 2.2575 10.1403 2.28775 10.807C2.31838 11.4723 2.42369 11.9265 2.57812 12.3239C2.73787 12.735 2.95144 13.0837 3.29894 13.4311C3.64625 13.7788 3.99494 13.9928 4.40575 14.1525C4.80344 14.307 5.25769 14.4123 5.92294 14.4428C6.58962 14.4732 6.8025 14.4806 8.49981 14.4806C10.1974 14.4806 10.4097 14.4732 11.0764 14.4428C11.7417 14.4123 12.1964 14.307 12.5941 14.1525C13.0051 13.9928 13.3532 13.7788 13.7005 13.4311C14.0482 13.0837 14.2617 12.735 14.4219 12.3241C14.5755 11.9265 14.681 11.4722 14.7122 10.8071C14.7422 10.1405 14.75 9.92797 14.75 8.23053C14.75 6.53309 14.7422 6.32009 14.7122 5.65341C14.681 4.98803 14.5755 4.53391 14.4219 4.13653C14.2617 3.72541 14.0482 3.37672 13.7005 3.02928C13.3529 2.68166 13.0052 2.46809 12.5938 2.30866C12.1953 2.15403 11.7409 2.04866 11.0755 2.01822C10.4088 1.98791 10.1966 1.98047 8.49862 1.98047H8.50056ZM7.93988 3.10678C8.10631 3.10653 8.292 3.10678 8.50056 3.10678C10.1694 3.10678 10.3671 3.11278 11.0261 3.14272C11.6355 3.17059 11.9663 3.27241 12.1866 3.35797C12.4783 3.47122 12.6862 3.60666 12.9048 3.82547C13.1236 4.04422 13.2589 4.25253 13.3725 4.54422C13.4581 4.76422 13.56 5.09497 13.5878 5.70434C13.6177 6.36322 13.6242 6.56109 13.6242 8.22909C13.6242 9.89709 13.6177 10.095 13.5878 10.7538C13.5599 11.3632 13.4581 11.694 13.3725 11.914C13.2593 12.2057 13.1236 12.4134 12.9048 12.632C12.6861 12.8508 12.4784 12.9862 12.1866 13.0995C11.9665 13.1854 11.6355 13.287 11.0261 13.3148C10.3673 13.3448 10.1694 13.3513 8.50056 13.3513C6.83169 13.3513 6.63387 13.3448 5.97506 13.3148C5.36569 13.2867 5.03494 13.1849 4.81444 13.0993C4.52281 12.986 4.31444 12.8507 4.09569 12.6319C3.87694 12.4132 3.74156 12.2053 3.628 11.9135C3.54244 11.6935 3.4405 11.3627 3.41275 10.7533C3.38281 10.0945 3.37681 9.89659 3.37681 8.22753C3.37681 6.55847 3.38281 6.36166 3.41275 5.70278C3.44062 5.09341 3.54244 4.76266 3.628 4.54234C3.74131 4.25066 3.87694 4.04234 4.09575 3.82359C4.31456 3.60484 4.52281 3.46941 4.8145 3.35591C5.03481 3.26997 5.36569 3.16841 5.97506 3.14041C6.55162 3.11434 6.77506 3.10653 7.93988 3.10522V3.10678ZM11.8368 4.14453C11.4228 4.14453 11.0868 4.48016 11.0868 4.89428C11.0868 5.30834 11.4228 5.64428 11.8368 5.64428C12.2509 5.64428 12.5868 5.30834 12.5868 4.89428C12.5868 4.48022 12.2509 4.14428 11.8368 4.14428V4.14453ZM8.50056 5.02084C6.72806 5.02084 5.29094 6.45797 5.29094 8.23053C5.29094 10.0031 6.72806 11.4395 8.50056 11.4395C10.2731 11.4395 11.7098 10.0031 11.7098 8.23053C11.7098 6.45803 10.273 5.02084 8.50044 5.02084H8.50056ZM8.50056 6.14716C9.65112 6.14716 10.5839 7.07984 10.5839 8.23053C10.5839 9.38109 9.65112 10.3139 8.50056 10.3139C7.35 10.3139 6.41725 9.38109 6.41725 8.23053C6.41725 7.07984 7.34994 6.14716 8.50056 6.14716Z" fill="white"/>
</g>
<defs>
<radialGradient id="paint0_radial_48_385" cx="0" cy="0" r="1" gradientUnits="userSpaceOnUse" gradientTransform="translate(4.75 17.4628) rotate(-90) scale(15.8572 14.7484)">
<stop stop-color="#FFDD55"/>
<stop offset="0.1" stop-color="#FFDD55"/>
<stop offset="0.5" stop-color="#FF543E"/>
<stop offset="1" stop-color="#C837AB"/>
</radialGradient>
<radialGradient id="paint1_radial_48_385" cx="0" cy="0" r="1" gradientUnits="userSpaceOnUse" gradientTransform="translate(-2.18006 1.38303) rotate(78.681) scale(7.08825 29.218)">
<stop stop-color="#3771C8"/>
<stop offset="0.128" stop-color="#3771C8"/>
<stop offset="1" stop-color="#6600FF" stop-opacity="0"/>
</radialGradient>
<clipPath id="clip0_48_385">
<rect width="16" height="16" fill="white" transform="translate(0.5 0.230469)"/>
</clipPath>
</defs>
</svg>
