<svg width="17" height="17" viewBox="0 0 17 17" fill="none" xmlns="http://www.w3.org/2000/svg">
<g clip-path="url(#clip0_48_382)">
<path d="M15 0.605527H2C1.70504 0.602525 1.42093 0.716657 1.21002 0.92288C0.999114 1.1291 0.878626 1.41057 0.875 1.70553V14.758C0.879282 15.0525 1.00006 15.3334 1.2109 15.5391C1.42173 15.7447 1.70547 15.8585 2 15.8555H15C15.295 15.8579 15.5789 15.7433 15.7897 15.537C16.0005 15.3306 16.121 15.0492 16.125 14.7543V1.70178C16.1197 1.40769 15.9986 1.12756 15.788 0.922284C15.5773 0.717007 15.2941 0.603174 15 0.605527Z" fill="#0076B2"/>
<path d="M3.13264 6.32178H5.39639V13.6055H3.13264V6.32178ZM4.26514 2.69678C4.52478 2.69678 4.77859 2.77379 4.99445 2.91806C5.21032 3.06234 5.37855 3.26739 5.47785 3.50729C5.57715 3.7472 5.60307 4.01116 5.55233 4.26579C5.50158 4.52043 5.37645 4.75429 5.19277 4.9378C5.00909 5.1213 4.77511 5.24621 4.52043 5.29671C4.26574 5.34721 4.0018 5.32104 3.762 5.22151C3.52219 5.12198 3.31729 4.95356 3.17323 4.73755C3.02916 4.52155 2.95239 4.26767 2.95264 4.00803C2.95297 3.66015 3.0914 3.32663 3.3375 3.08076C3.58361 2.83489 3.91726 2.69678 4.26514 2.69678ZM6.81639 6.32178H8.98639V7.32178H9.01639C9.31889 6.74928 10.0564 6.14553 11.1576 6.14553C13.4501 6.14053 13.8751 7.64928 13.8751 9.60553V13.6055H11.6114V10.0618C11.6114 9.21803 11.5964 8.13178 10.4351 8.13178C9.27389 8.13178 9.07639 9.05178 9.07639 10.0068V13.6055H6.81639V6.32178Z" fill="white"/>
</g>
<defs>
<clipPath id="clip0_48_382">
<rect width="16" height="16" fill="white" transform="translate(0.5 0.230469)"/>
</clipPath>
</defs>
</svg>
